<?xml version="1.0" encoding="utf-8"?><!DOCTYPE svg PUBLIC "-//W3C//DTD SVG 1.1//EN" "http://www.w3.org/Graphics/SVG/1.1/DTD/svg11.dtd"><svg version="1.1" id="Contours" xmlns="http://www.w3.org/2000/svg" xmlns:xlink="http://www.w3.org/1999/xlink" x="0px" y="0px" width="937.961243px" height="937.961243px" viewBox="-0.000006 -0.000000 937.961243 636.392029" enable-background="new 0 0 937.961243 937.961243" xml:space="preserve" stroke="black" fill="none" stroke-linecap='round' stroke-linejoin='round'><path class="selected"  fill="#000000" opacity="1.000000" stroke="none" 
 	d="
M655.448736 281.050720 C655.448736 334.550415 655.339117 387.550598 655.563238 440.549347 C655.598150 448.783783 648.112921 456.286621 639.968878 456.167969 C616.973883 455.832642 593.970831 456.053833 570.970953 456.046143 C568.595038 456.045349 566.219061 455.980347 563.843146 455.945130 C564.378363 453.609070 564.884649 451.265930 565.454169 448.938294 C567.172308 441.916046 567.029425 434.904602 564.351141 428.218842 C562.902228 424.602051 564.095709 423.992584 567.284369 424.028687 C573.783453 424.102326 580.284064 424.050720 586.784003 424.050720 C602.783941 424.050720 618.785956 423.907196 634.782294 424.147644 C638.992804 424.210907 640.448004 422.121430 640.376105 418.752838 C640.176459 409.401734 643.549322 406.972657 629.684820 406.996002 C559.185431 407.114685 488.685736 407.050995 418.186102 407.050293 C411.839056 407.050232 411.449408 406.661133 411.449225 400.323731 C411.448187 368.990570 411.499335 337.657227 411.379217 306.324524 C411.365545 302.750031 412.677557 300.744110 415.686529 298.984284 C423.383917 294.482361 427.949591 287.989685 427.492743 278.621277 C427.419134 277.112335 427.928839 275.574951 428.168890 274.050720 C429.262213 275.445587 430.764960 276.679749 431.385260 278.260224 C437.423346 293.644928 447.943426 305.736023 460.470526 315.874542 C468.303717 322.214112 477.360113 327.129395 486.173590 332.146149 C494.992377 337.165894 504.911627 338.819672 514.882147 340.084992 C521.324347 340.902588 527.745062 343.015137 534.140143 342.879792 C558.731268 342.359406 581.232367 334.938568 601.352057 320.627899 C601.887762 320.246857 602.237677 319.592469 602.788153 319.246979 C603.900274 318.548920 605.090948 317.975830 606.249274 317.351197 C606.577521 318.822632 607.393194 320.384186 607.140875 321.748169 C606.438116 325.547394 608.445624 327.732300 612.198004 326.796845 C613.100714 326.571808 613.981329 326.133850 614.889960 326.076691 C623.447638 325.538300 623.241339 325.549622 623.512274 316.734497 C623.742377 309.247406 621.721686 301.442475 626.467901 294.474121 C629.363531 290.222931 632.056708 285.819245 634.608954 281.351563 C642.600653 267.362000 646.328375 252.250214 647.577337 236.184174 C649.705206 208.812073 642.162482 184.441223 627.023810 161.933655 C625.033392 158.974396 623.946112 155.029846 623.598334 151.429810 C623.040045 145.650421 623.333563 139.774414 623.496161 133.945664 C623.580572 130.918747 622.458807 129.798813 619.460760 130.008454 C616.641180 130.205597 613.794806 129.978791 610.964300 130.068314 C607.140753 130.189240 605.851568 132.159180 606.703924 135.882798 C606.970465 137.046921 606.497626 138.380310 606.363226 139.636231 C605.204962 139.087586 603.857184 138.760697 602.916754 137.957123 C588.744879 125.847077 572.117987 119.186920 553.964789 116.119477 C547.480170 115.023743 540.792792 113.783509 534.320746 114.263687 C523.910528 115.036042 513.545477 116.880127 503.262945 118.812042 C482.467657 122.719101 465.678045 134.154587 451.352484 148.948731 C441.189581 159.444092 432.093695 171.098404 428.415961 185.868302 C428.302435 186.324295 427.502997 187.054489 427.363837 186.984055 C426.663885 186.629929 425.692938 186.163437 425.510748 185.535218 C423.886420 179.935059 420.052008 176.637543 415.089239 173.843155 C413.196112 172.777161 411.612982 169.372086 411.599554 167.023300 C411.385687 129.358032 411.474493 91.691178 411.413946 54.024819 C411.406927 49.644341 413.821295 49.010369 417.439093 49.013123 C484.605414 49.064377 551.771673 49.050720 618.937994 49.050720 C624.437933 49.050720 629.948920 49.240998 635.430548 48.924317 C636.902472 48.839279 639.298651 47.407868 639.523077 46.254463 C640.262945 42.452660 640.417975 38.487641 640.285406 34.602761 C640.255133 33.716110 638.272528 32.645081 636.998053 32.131920 C635.994147 31.727692 634.697455 32.050720 633.530768 32.050720 C564.031134 32.050720 494.531561 32.058838 425.031927 32.044464 C409.552252 32.041260 411.456000 33.800614 411.526678 18.169953 C411.539191 15.399964 412.278876 12.534348 413.187201 9.885857 C415.913519 1.935833 422.662298 0.124745 429.894781 0.112084 C491.227606 0.004692 552.560614 0.050720 613.893622 0.050720 C621.893561 0.050720 629.896612 -0.086593 637.892584 0.090645 C645.380926 0.256638 651.704657 2.659973 654.408087 10.488587 C655.018072 12.254975 655.406012 14.198220 655.407049 16.060318 C655.454840 104.223770 655.448736 192.387253 655.448736 281.050720 M591.448736 387.550720 C594.486456 389.050720 597.458807 391.660553 600.574042 391.844086 C610.187323 392.410370 619.864020 392.306092 629.498724 391.967011 C636.730963 391.712433 638.817877 390.012970 639.333502 383.385987 C640.109564 373.412964 640.424322 363.377716 640.351263 353.373200 C640.292486 345.331513 636.342108 342.060303 628.091253 342.052582 C619.276251 342.044312 610.458807 342.180847 601.647101 342.010071 C594.437628 341.870301 590.301031 345.766571 590.416449 353.036042 C590.553595 361.682526 590.374945 370.333863 590.494635 378.980896 C590.529608 381.508087 591.115362 384.027649 591.448736 387.550720 M632.948736 114.050720 C636.235358 112.700714 639.440130 111.531815 639.506293 106.933457 C639.657599 96.419632 640.715338 85.882736 640.235663 75.408768 C639.921149 68.542542 637.459418 65.194062 631.600470 65.100212 C620.787543 64.927010 609.969488 64.994370 599.154425 65.077629 C594.642950 65.112366 590.522406 69.109360 590.480963 73.544541 C590.381354 84.192902 590.352423 94.844025 590.487311 105.491608 C590.560370 111.255265 593.672369 114.041550 599.501715 114.047531 C610.317389 114.058625 621.133063 114.050720 632.948736 114.050720 M525.448736 351.550720 C526.225165 347.120758 523.908697 344.469757 519.913580 344.150666 C508.070929 343.204682 496.193243 342.316407 484.325812 342.269959 C480.215399 342.253845 476.578863 345.472260 476.501715 350.368164 C476.331366 361.176087 476.210821 371.996552 476.574591 382.794892 C476.706549 386.712250 477.859869 390.900971 483.306769 391.056488 C494.312445 391.370667 505.334418 392.230866 516.316107 391.863526 C523.212347 391.632843 525.448736 388.071900 525.448736 380.990906 C525.448736 371.510834 525.448736 362.030792 525.448736 351.550720 M517.948736 113.050720 C523.781256 111.855545 525.447149 109.943695 525.448187 104.430588 C525.450079 94.109406 525.475470 83.788117 525.437689 73.467072 C525.418158 68.139847 522.469122 65.092171 517.245367 65.066429 C506.591498 65.013947 495.936835 64.997086 485.283270 65.075012 C480.489935 65.110077 476.505865 69.116928 476.471747 73.921341 C476.397284 84.408463 476.243536 94.902039 476.526800 105.382035 C476.693060 111.534226 479.896979 114.353668 485.402716 114.096466 C495.911383 113.605561 506.432684 113.384064 517.948736 113.050720 M435.448736 354.550720 C435.448736 362.686768 435.506903 370.823456 435.421271 378.958618 C435.385199 382.383332 436.735296 384.284272 440.287726 384.025482 C443.147528 383.817108 446.071661 383.678589 448.807989 382.928040 C450.202521 382.545563 452.249945 380.919495 452.288824 379.796112 C452.581976 371.338135 452.673285 362.853882 452.241949 354.407776 C452.164252 352.884766 449.614508 350.860596 447.799261 350.219483 C445.732489 349.489502 443.086615 349.596985 440.921271 350.184174 C438.938544 350.721863 437.260809 352.384033 435.448736 354.550720 M452.448736 76.550720 C451.324652 75.384049 450.336798 73.433762 449.048773 73.209717 C446.139960 72.703720 443.082220 73.086518 440.086066 73.041123 C436.774786 72.990952 435.394476 74.653931 435.432440 77.869721 C435.493292 83.030213 435.448736 88.191925 435.448736 93.353134 C435.448736 106.553299 435.446417 106.467469 448.605108 106.114914 C451.650336 106.033356 452.563605 104.985504 452.504767 102.023682 C452.342718 93.868881 452.448736 85.708740 452.448736 76.550720 M566.448736 356.550720 C565.632025 354.400696 564.948981 350.482361 563.975348 350.408783 C559.906866 350.101319 555.702582 350.712464 551.662726 351.544159 C550.697882 351.742798 549.580145 354.073731 549.546576 355.448731 C549.348089 363.572418 549.400763 371.703827 549.471930 379.831726 C549.501166 383.173767 551.594000 384.346253 554.655157 384.032471 C557.014837 383.790589 559.376654 383.015473 561.703375 383.136231 C565.282538 383.321961 566.688910 382.265930 566.530646 378.449280 C566.242254 371.493927 566.448736 364.518036 566.448736 356.550720 M549.448736 88.550720 C549.448736 90.215622 549.448736 91.880524 549.448736 93.545426 C549.448736 106.360352 549.448736 106.360199 562.296210 106.051758 C562.629034 106.043762 563.096075 106.193543 563.273260 106.027359 C564.367987 105.000717 566.278265 103.929444 566.309454 102.827515 C566.558844 94.010575 566.558295 85.180420 566.313177 76.363266 C566.281805 75.232819 564.384222 73.176743 563.387945 73.198960 C550.791327 73.479859 549.029669 69.696457 549.446417 85.552902 C549.463934 86.218399 549.448736 86.884766 549.448736 88.550720 z"/><path class="selected"  fill="#000000" opacity="1.000000" stroke="none" 
 	d="
M534.448736 326.050720 C513.120489 325.806793 493.740423 319.970948 477.073981 307.829651 C457.253241 293.390473 443.598883 273.961060 438.543219 249.552216 C433.616583 225.766602 436.416693 202.900666 448.409552 181.366013 C461.959967 157.034607 482.251898 141.400864 508.924200 134.130341 C523.203131 130.238068 537.621222 130.093338 552.357001 132.858490 C568.622503 135.910706 583.085516 142.522126 595.525946 152.898346 C610.039801 165.003983 620.732611 180.124817 626.500189 198.463562 C629.729925 208.732910 631.772040 219.225251 631.330267 229.896027 C630.396002 252.462830 623.484381 272.854431 608.677374 290.491791 C596.188605 305.367798 581.008246 315.967896 562.492193 321.280274 C553.587774 323.834992 544.146734 324.519348 534.448736 326.050720 M486.448736 195.550720 C480.599249 204.832093 476.925055 214.969239 476.567755 225.887268 C476.128241 239.321442 480.014593 251.505402 488.230108 262.504425 C497.676153 275.150818 510.063421 282.913544 525.366034 284.822296 C538.458990 286.455414 551.263006 284.676850 563.094061 277.211731 C574.148871 270.236420 581.903631 261.080658 586.834540 249.188355 C590.258856 240.929596 591.101691 232.417694 590.531134 223.529969 C589.744452 211.275330 585.304999 200.630341 577.334112 191.515747 C567.583685 180.366318 555.608771 173.719406 540.491949 171.787720 C529.446417 170.376297 519.412909 172.205490 509.649969 176.481949 C500.456000 180.509217 493.009039 187.016999 486.448736 195.550720 z"/><path class="selected"  fill="#000000" opacity="1.000000" stroke="none" 
 	d="
M411.448736 248.050720 C411.448736 257.041931 411.607001 265.536865 411.406622 274.023346 C411.181524 283.558014 408.269842 285.187104 400.358710 285.142548 C363.564642 284.935242 326.768713 285.051392 289.973486 285.049988 C284.068579 285.049744 281.449713 282.408203 281.449377 276.454407 C281.447912 249.815308 281.583929 223.174988 281.334814 196.538208 C281.284949 191.205918 283.934302 187.902054 289.997748 187.938462 C327.291144 188.162384 364.586554 188.049866 401.881293 188.051499 C408.722540 188.051804 411.423224 190.696488 411.437506 197.602265 C411.471991 214.251679 411.448736 230.901215 411.448736 248.050720 M355.948736 258.050720 C363.762579 252.181366 364.863287 241.146057 359.289007 235.173340 C354.449896 229.988373 354.156256 224.357056 354.423529 218.121308 C354.565924 214.798828 354.776495 211.418518 354.311896 208.156128 C354.075751 206.498139 352.614203 203.942169 351.355353 203.711884 C348.123114 203.120545 344.633612 203.231018 341.363348 203.768860 C338.603583 204.222779 337.230841 206.274262 337.380316 209.447174 C337.630682 214.761109 337.835181 220.134857 337.297034 225.405640 C336.996802 228.346344 335.890173 231.889618 333.869482 233.833405 C329.005102 238.512604 328.381811 247.954956 332.292883 253.380524 C337.958258 261.239807 346.062323 263.545044 355.948736 258.050720 z"/><path class="selected"  fill="#000000" opacity="1.000000" stroke="none" 
 	d="
M260.698736 551.800720 C262.834143 553.936157 264.529883 556.074890 266.642554 557.656800 C271.828222 561.539856 270.430853 567.041870 270.259649 572.106690 C270.225073 573.130066 267.796423 574.857788 266.416937 574.913758 C260.653021 575.147156 254.778448 575.965088 250.170233 570.578553 C248.601965 568.745423 245.136694 567.816895 242.503912 567.745972 C234.230078 567.522766 225.932532 567.766480 217.664679 568.210938 C216.533056 568.271851 214.607977 570.483338 214.588171 571.723694 C214.367132 585.552002 214.391974 599.385498 214.486426 613.216736 C214.511786 616.927307 215.482977 618.190186 220.219610 617.371216 C227.339331 616.140259 234.847449 616.737000 242.155493 617.160218 C247.084479 617.445740 248.843878 616.173706 248.574835 610.953736 C248.116888 602.067810 248.448736 602.050720 239.481360 602.050720 C228.448736 602.050720 228.431219 602.050659 228.454108 591.206909 C228.473700 581.929993 227.381537 583.084778 236.669592 583.057129 C246.335119 583.028382 256.003485 583.181092 265.665014 582.982605 C269.216009 582.909668 270.629706 583.784058 270.536017 587.648316 C270.281683 598.140991 270.626898 608.649170 270.316839 619.138855 C270.244116 621.598816 268.932684 624.295288 267.482245 626.392700 C262.075628 634.211121 254.757117 637.051209 245.020758 636.266236 C233.596258 635.345215 222.038611 635.930237 210.542944 636.118164 C206.681586 636.181275 204.008398 634.717835 201.028998 632.350830 C194.063727 626.816956 191.820196 620.178711 192.245367 611.315552 C192.979193 596.019104 192.346472 580.660462 192.565588 565.331909 C192.596319 563.183289 193.858526 560.820618 195.138006 558.961182 C200.907538 550.576477 208.865790 548.050782 219.003821 548.844605 C230.432471 549.739563 241.988165 548.914612 253.481482 549.164063 C255.820074 549.214783 258.127142 550.717407 260.698736 551.800720 z"/><path class="selected"  fill="#000000" opacity="1.000000" stroke="none" 
 	d="
M462.448736 581.050720 C462.448736 595.706116 462.448736 609.861573 462.448736 624.016968 C462.448736 626.738465 462.262335 629.475891 462.494452 632.177490 C462.806402 635.807923 460.823370 636.081299 457.945624 636.098267 C442.706000 636.188294 442.683783 636.256897 433.718085 622.808289 C426.501837 611.983826 419.366583 601.105408 412.132513 590.292969 C411.574896 589.459656 410.518927 588.959717 409.694647 588.304810 C409.279364 589.465088 408.510382 590.622986 408.502875 591.785950 C408.417486 604.941590 408.349493 618.099243 408.514899 631.253357 C408.559088 634.771790 407.771673 636.400635 403.867926 636.127198 C399.227728 635.802185 394.527350 636.286316 389.897772 635.893372 C388.664191 635.788636 386.602362 633.765564 386.594244 632.611450 C386.405768 605.967285 386.478766 579.321472 386.405096 552.676148 C386.397223 549.831543 387.484686 548.747803 390.197211 549.048340 C390.361700 549.066529 390.530096 549.053772 390.696539 549.050232 C406.563605 548.714905 406.685614 548.632996 417.375250 564.548279 C424.608282 575.317200 431.432806 586.360535 438.463202 597.266114 C438.875677 597.905884 439.496527 598.411133 440.020514 598.979004 C440.496588 598.177002 441.408209 597.354126 441.370978 596.576721 C441.233465 593.707764 440.522589 590.856507 440.494391 587.993958 C440.383063 576.670716 440.494818 565.345398 440.421393 554.021546 C440.398566 550.496826 441.915167 548.945130 445.436346 549.025818 C449.930426 549.128907 454.428961 549.083863 458.924933 549.039917 C462.323492 549.006653 463.580206 550.808411 463.454657 553.985413 C463.104559 562.839905 462.782110 571.695557 462.448736 581.050720 z"/><path class="selected"  fill="#000000" opacity="1.000000" stroke="none" 
 	d="
M873.448736 602.050720 C868.608649 598.043946 864.254278 594.052429 859.951544 590.005860 C859.542486 589.621155 859.290533 588.905091 859.246344 588.321533 C858.540045 578.993225 855.564581 568.917481 860.805548 560.700867 C864.695563 554.602234 869.481451 547.908692 879.613898 548.770203 C893.016485 549.909668 906.590704 548.937744 920.086188 549.165894 C922.244757 549.202332 924.703253 550.350342 926.448248 551.717957 C929.313116 553.963257 931.534674 557.016602 934.341437 559.351746 C938.277594 562.626465 937.704230 566.983155 937.255743 571.075684 C937.096808 572.525940 934.790899 574.768372 933.339972 574.870362 C927.255865 575.298218 920.841192 576.115357 916.281866 570.389832 C913.357794 566.717835 908.922125 567.569763 905.153082 567.199646 C899.375738 566.632508 893.473028 566.719300 887.683111 567.218933 C885.463141 567.410523 882.049811 569.110840 881.564703 570.806092 C880.618292 574.113526 881.078131 577.942932 881.608404 581.457764 C881.721075 582.204712 884.619391 582.961548 886.243292 582.981201 C897.241217 583.114319 908.248907 582.831360 919.235724 583.205567 C921.969733 583.298645 924.908941 584.907837 927.288458 586.511048 C935.890631 592.306641 937.466803 600.563965 937.930548 610.727417 C938.453619 622.194031 932.217291 628.225708 925.214361 634.630127 C924.094366 635.654358 921.994269 635.981140 920.343146 635.992005 C905.177740 636.091797 890.010870 636.120056 874.846686 635.954346 C873.141852 635.935730 871.181769 634.915283 869.812872 633.786133 C867.253424 631.674805 865.275885 628.828064 862.632452 626.854920 C857.893561 623.317627 858.206671 618.423462 858.559332 613.548889 C858.646857 612.338074 859.851324 610.717041 860.975958 610.161011 C864.949713 608.196045 875.746100 610.636170 879.113775 614.327881 C881.094366 616.499207 883.155890 617.186280 886.023688 617.118470 C894.185431 616.925537 902.356451 616.953675 910.520025 617.101441 C913.530157 617.155945 914.601202 616.102295 914.524786 613.098206 C914.469244 610.912903 915.273077 608.719788 915.412359 606.512329 C915.629034 603.077759 913.594977 602.012757 910.448492 602.027527 C898.282110 602.084473 886.115362 602.050720 873.448736 602.050720 z"/><path class="selected"  fill="#000000" opacity="1.000000" stroke="none" 
 	d="
M57.448736 549.050720 C66.662344 549.050720 76.448736 558.730835 76.448736 567.349793 C76.448736 584.336365 76.352606 601.323914 76.523779 618.308777 C76.561377 622.039795 75.016470 624.519226 72.841833 627.344788 C67.280783 634.570191 60.355108 636.650574 51.386923 636.242554 C36.097357 635.546875 20.753180 636.056580 5.431952 636.047425 C0.322745 636.044312 -0.711847 634.600647 0.407187 629.483704 C0.685263 628.212220 0.448736 626.828186 0.448736 625.495911 C0.448736 603.513306 0.448736 581.530640 0.448736 559.548035 C0.448736 558.215760 0.688040 556.830445 0.406622 555.560547 C-0.714456 550.501770 0.344275 549.056031 5.489447 549.053711 C22.642538 549.045899 39.795645 549.050720 57.448736 549.050720 M39.948736 617.050720 C43.609167 617.050720 47.304846 617.338684 50.911185 616.897034 C52.201498 616.738953 54.277823 614.834046 54.296515 613.698487 C54.529211 599.559754 54.506659 585.415100 54.334418 571.274658 C54.321219 570.189881 52.747397 568.257874 51.791006 568.187500 C43.960531 567.611450 36.100851 567.120667 28.258490 567.227112 C26.174994 567.255371 22.432501 567.003662 22.439398 571.193360 C22.463476 585.835083 22.391913 600.477600 22.574942 615.117005 C22.587317 616.106507 24.409170 617.909790 25.386450 617.907715 C29.907797 617.898194 34.428076 617.384095 39.948736 617.050720 z"/><path class="selected"  fill="#000000" opacity="1.000000" stroke="none" 
 	d="
M700.448736 611.050720 C698.449469 611.050720 696.949774 611.028137 695.450995 611.055115 C691.561651 611.125122 689.037726 612.284302 689.370428 617.013306 C689.720282 621.986267 689.308417 627.008301 689.501959 631.998352 C689.616339 634.946350 688.719183 636.210633 685.622137 636.097351 C680.797674 635.920960 675.958441 635.940552 671.132330 636.092957 C668.341070 636.181153 667.397406 635.130554 667.406683 632.357361 C667.481756 609.868714 667.384039 587.379151 667.561041 564.891602 C667.576666 562.909729 668.854437 560.710205 670.088873 559.004639 C675.701544 551.249268 682.950262 547.921936 692.934088 548.833863 C703.507269 549.799622 714.240484 549.206482 724.896795 548.973572 C729.129400 548.881043 732.015814 550.518189 735.265448 553.111084 C741.987433 558.474732 743.956244 564.799011 743.660040 573.312622 C742.988531 592.613098 743.373907 611.953491 743.516485 631.276245 C743.542731 634.831360 742.706854 636.417664 738.842840 636.122071 C734.702460 635.805359 730.517340 635.976868 726.354925 636.073120 C722.784369 636.155640 721.349737 634.464112 721.424017 630.995545 C721.523810 626.333313 721.177557 621.647095 721.524237 617.008606 C721.877936 612.276856 719.330939 611.092835 715.441656 611.060364 C710.610968 611.020081 705.779730 611.050720 700.448736 611.050720 M704.948736 567.050720 C701.789923 567.050720 698.613592 566.842102 695.476752 567.104798 C691.750067 567.416870 688.816962 568.420349 689.333929 573.476197 C689.855414 578.576782 689.616827 583.779724 689.388556 588.923462 C689.241217 592.242981 690.512152 593.185791 693.685675 593.108826 C701.162726 592.927429 708.649054 592.949402 716.127814 593.091126 C720.205694 593.168457 721.640753 591.332764 721.492438 587.428223 C721.309515 582.613770 721.309088 577.781678 721.496832 572.967591 C721.626715 569.637635 721.098273 567.719849 717.000128 567.939453 C713.342718 568.135437 709.634527 567.384095 704.948736 567.050720 z"/><path class="selected"  fill="#000000" opacity="1.000000" stroke="none" 
 	d="
M148.448736 549.050720 C155.280951 549.050720 161.622290 548.874817 167.937414 549.203247 C169.160437 549.266785 171.101813 551.179505 171.288397 552.448487 C171.768072 555.710755 171.467291 559.090515 171.444250 562.423096 C171.412085 567.075196 169.877417 568.155152 164.999365 567.132874 C164.045233 566.932923 163.020666 567.053467 162.028570 567.053162 C150.363989 567.049378 138.699377 567.030579 127.034888 567.059449 C121.381659 567.073365 119.455664 569.009522 119.448767 574.512512 C119.438055 583.050720 119.438025 583.050720 127.786383 583.050720 C138.617773 583.050720 149.450781 583.154785 160.279577 582.987671 C163.554266 582.937134 164.731909 584.031678 164.495245 587.263306 C164.276739 590.246765 164.305548 593.267334 164.483343 596.256165 C164.731207 600.422425 163.079291 602.177368 158.777594 602.108948 C147.782355 601.934204 136.778998 602.210816 125.786047 601.974915 C121.152807 601.875550 119.248114 603.375672 119.373389 608.179505 C119.604590 617.045838 119.416388 617.050720 128.451178 617.050720 C140.948950 617.050720 153.447699 617.140076 165.943884 616.999085 C169.958624 616.953797 171.493536 618.480103 171.505774 622.509033 C171.546911 636.051026 171.639929 636.050720 158.116217 636.050720 C143.952093 636.050720 129.786078 635.923218 115.625067 636.133789 C111.729376 636.191712 108.786200 634.917237 106.182928 632.288758 C104.189490 630.276062 101.864111 628.499573 100.271155 626.210938 C98.900915 624.242310 97.588965 621.705078 97.568121 619.407288 C97.368445 597.413086 97.515509 575.415833 97.380835 553.420655 C97.359228 549.889588 98.523596 548.940979 101.957281 548.978272 C117.286200 549.144898 132.617987 549.050720 148.448736 549.050720 z"/><path class="selected"  fill="#000000" opacity="1.000000" stroke="none" 
 	d="
M291.448736 569.050720 C291.448736 563.217407 291.241705 557.870056 291.602728 552.561341 C291.686865 551.323792 293.692084 549.209839 294.828650 549.199646 C317.160010 548.999390 339.493780 549.086426 361.826666 549.006409 C364.680487 548.996155 365.411505 550.111145 365.505560 552.805481 C366.002936 567.052979 366.067328 567.050720 351.813483 567.050720 C341.980231 567.050720 332.146887 567.030152 322.313696 567.057251 C314.482062 567.078797 309.820990 574.786988 313.707037 581.609070 C314.265295 582.589173 316.531439 582.976685 318.013128 582.990174 C329.845404 583.098572 341.682440 583.209473 353.510443 582.961487 C357.465033 582.878601 358.925726 584.038513 358.506232 587.999024 C358.209418 590.800904 358.135138 593.702759 358.517889 596.483399 C359.189947 601.365601 357.030218 602.264649 352.625372 602.148377 C341.466498 601.854004 330.292975 602.165161 319.129034 601.992737 C314.836615 601.926453 313.092688 603.668579 313.431891 607.837036 C313.539648 609.161621 313.494879 610.504273 313.440130 611.835327 C313.270178 615.967407 313.859198 618.039063 319.317541 617.298828 C326.681982 616.299988 334.283758 617.050720 341.783697 617.050720 C347.950323 617.050720 354.118902 617.143006 360.282965 617.016724 C364.088934 616.938660 365.457648 618.634705 365.497320 622.349488 C365.643500 636.051514 365.717230 636.050720 352.270941 636.050720 C337.937689 636.050720 323.604468 636.051697 309.271216 636.050354 C301.498602 636.049622 291.448736 625.898072 291.448736 618.051026 C291.448736 601.884278 291.448736 585.717469 291.448736 569.050720 z"/><path class="selected"  fill="#000000" opacity="1.000000" stroke="none" 
 	d="
M483.448736 576.050720 C483.448736 568.388123 483.515631 561.224549 483.420172 554.063233 C483.373297 550.553284 484.861517 549.014588 488.396307 549.024964 C507.052252 549.079895 525.709112 548.977661 544.363470 549.156494 C546.369940 549.175782 548.645636 550.280579 550.312689 551.528199 C557.862738 557.178772 562.002691 564.240967 560.608404 574.291748 C559.746954 580.502014 560.263983 586.936524 560.518744 593.256043 C560.668951 596.983155 559.035589 599.466858 556.882208 602.313843 C551.350043 609.627930 544.496649 612.161316 535.421393 611.213196 C527.841864 610.421204 520.113714 611.042237 512.451422 611.053711 C507.194464 611.061524 505.842840 612.961487 506.365790 618.185303 C506.778509 622.308289 506.746588 626.533631 506.358465 630.661438 C506.022528 634.234497 504.502630 636.849182 499.855108 636.157166 C496.269964 635.623352 492.535406 635.914490 488.878912 636.087158 C484.826361 636.278565 483.371649 634.509705 483.397589 630.519776 C483.514837 612.530701 483.448736 594.540528 483.448736 576.050720 M506.448736 575.550720 C506.448736 580.039612 506.595343 584.534912 506.396857 589.015015 C506.265997 591.967224 507.204169 593.157410 510.277594 593.099549 C518.088812 592.952515 525.904730 593.023133 533.718512 593.063965 C536.958258 593.080933 538.487555 591.583985 538.461066 588.336060 C538.416327 582.850037 538.641974 577.351685 538.310065 571.885437 C538.229132 570.553406 536.516241 568.317444 535.396185 568.214722 C528.248602 567.559265 521.059759 567.224060 513.879034 567.097290 C507.171271 566.978882 506.448736 567.876282 506.448736 575.550720 z"/><path class="selected"  fill="#000000" opacity="1.000000" stroke="none" 
 	d="
M297.448736 142.050720 C297.448736 133.220825 297.420996 124.890793 297.455450 116.561051 C297.502203 105.270981 300.616858 94.934082 308.466559 86.679245 C315.760351 79.009033 324.814856 74.330628 335.677405 74.077561 C342.004706 73.930130 348.342779 74.205643 354.668097 74.020706 C371.409857 73.531235 388.434881 86.231232 392.624335 101.766205 C393.440314 104.791733 394.340765 107.922165 394.368231 111.011658 C394.531256 129.335984 394.348761 147.663483 394.530768 165.987458 C394.568426 169.778702 393.737982 171.235199 389.634161 171.147888 C379.452948 170.931244 379.448736 171.129669 379.448736 160.867569 C379.448736 146.040345 379.528448 131.212570 379.423102 116.386093 C379.341559 104.919373 374.838141 95.953247 363.937567 91.137543 C361.554327 90.084656 358.798102 89.424485 356.200995 89.383377 C343.294562 89.179123 329.652594 86.337509 319.425909 97.669876 C315.800848 101.686875 313.432165 106.484787 313.439917 112.162339 C313.463995 129.821686 313.349005 147.482041 313.517248 165.139817 C313.560583 169.689347 311.821203 171.490174 307.396490 171.075760 C305.745001 170.921082 304.064368 170.991654 302.401434 171.062928 C298.866614 171.214447 297.378576 169.554367 297.419958 166.041596 C297.512152 158.212281 297.448736 150.381119 297.448736 142.050720 z"/><path class="selected"  fill="#000000" opacity="1.000000" stroke="none" 
 	d="
M803.448736 636.050720 C790.448736 636.050720 790.585760 636.048584 790.390814 623.703369 C790.293768 617.550904 791.046759 610.804749 788.812140 605.404236 C785.578375 597.589295 779.982916 590.751465 775.394903 583.496887 C770.806952 576.242188 765.918402 569.152588 761.795355 561.642639 C760.368536 559.043762 760.542670 555.394409 760.613653 552.239014 C760.638128 551.154053 762.507635 549.287171 763.647406 549.196228 C768.113409 548.840149 772.850775 548.211731 777.040228 549.341919 C779.894293 550.111817 782.625311 553.250855 784.333563 556.000183 C789.647955 564.553406 794.424261 573.439881 799.480170 582.155945 C800.102545 583.228943 801.154486 584.052796 802.007391 584.992066 C802.487799 584.025879 802.920172 583.032166 803.456061 582.097779 C809.550909 571.470520 815.645758 560.843140 821.810309 550.256348 C822.150885 549.671387 823.100775 549.114319 823.776373 549.102845 C829.267889 549.010071 834.770025 548.902466 840.245306 549.214600 C841.044012 549.260071 842.255804 551.459046 842.359747 552.736206 C842.954474 560.038025 838.348395 565.370240 834.887152 571.063721 C828.167731 582.116333 821.165594 592.998230 814.539618 604.105347 C813.241156 606.282044 812.658636 609.137329 812.539984 611.716126 C812.257147 617.862000 812.106573 624.054749 812.556341 630.180603 C812.920294 635.138062 811.095404 636.786438 806.443487 636.068482 C805.630377 635.942932 804.781256 636.050720 803.448736 636.050720 z"/><path class="selected"  fill="#000000" opacity="1.000000" stroke="none" 
 	d="
M497.448736 424.050720 C504.765448 424.050720 504.707770 424.030701 502.464117 430.494568 C499.953009 437.729157 500.173285 444.834564 503.392401 451.898682 C504.731634 454.837464 505.033453 456.547058 500.082159 456.273438 C487.810003 455.595337 475.475287 456.050720 463.165655 456.050720 C451.355047 456.050720 439.527716 455.666687 427.739569 456.181214 C419.420660 456.544312 412.141180 449.576416 411.488470 440.319092 C411.243353 436.843109 411.623358 433.324433 411.405646 429.844757 C411.117010 425.231995 413.288824 423.966889 417.601935 423.987458 C444.050360 424.113800 470.499701 424.050720 497.448736 424.050720 z"/><path class="selected"  fill="#000000" opacity="1.000000" stroke="none" 
 	d="
M581.448736 609.050720 C581.448736 590.412720 581.598334 572.272583 581.340033 554.138245 C581.278021 549.783325 582.733710 548.670838 586.731512 548.986084 C590.535101 549.286133 594.401983 549.301087 598.202521 548.982605 C602.272833 548.641480 603.606695 549.893799 603.552557 554.175293 C603.312689 573.142273 603.448675 592.113953 603.448797 611.083985 C603.448858 617.646302 603.685309 617.359375 610.015997 617.161194 C622.151556 616.781311 634.310492 616.925843 646.450628 617.224732 C647.813544 617.258301 649.159430 619.653137 650.412848 621.043457 C650.661139 621.318848 650.442633 622.009583 650.449591 622.508728 C650.637945 636.050720 650.638190 636.050720 637.153082 636.050720 C624.339972 636.050720 611.521857 636.240052 598.717840 635.899231 C595.989325 635.826538 593.068915 634.202698 590.655279 632.645081 C582.202765 627.190613 580.082953 619.020020 581.448736 609.050720 z"/><path class="selected"  fill="#000000" opacity="1.000000" stroke="none" 
 	d="
M546.698736 430.800720 C553.043463 442.170929 547.623053 452.976013 538.818793 455.298279 C531.831793 457.141175 523.653326 455.184937 520.518255 449.495697 C516.707587 442.580536 516.554449 435.580384 522.394415 429.363953 C529.276129 422.038666 539.371954 422.783997 546.698736 430.800720 z"/><path class="selected"  fill="#000000" opacity="1.000000" stroke="none" 
 	d="
M609.698736 374.800720 C607.736090 372.507416 606.493841 361.956452 607.870856 360.194580 C608.306219 359.637543 609.142767 359.236054 609.860480 359.096588 C610.816168 358.910828 611.836004 359.077515 612.826849 359.046662 C625.037909 358.666657 623.339667 359.484955 623.465033 370.225342 C623.506293 373.762451 621.789435 375.185547 618.378424 375.070130 C615.571539 374.975128 612.758856 375.050720 609.698736 374.800720 z"/><path class="selected"  fill="#000000" opacity="1.000000" stroke="none" 
 	d="
M619.448736 97.050705 C617.593817 97.384064 616.239630 97.720230 614.883917 98.050202 C610.734076 99.060257 607.400397 96.677994 607.467718 92.575821 C607.673712 80.023560 605.324469 82.348343 618.205755 82.023712 C621.930426 81.929840 623.661017 83.466080 623.468695 87.231705 C623.358832 89.382599 623.874090 91.666321 623.300116 93.657349 C622.913336 94.998993 621.115362 95.933853 619.448736 97.050705 z"/><path class="selected"  fill="#000000" opacity="1.000000" stroke="none" 
 	d="
M508.448736 372.050720 C507.335028 373.384033 506.320257 374.678467 505.084723 374.943665 C503.187140 375.350952 501.128729 374.929261 499.154669 375.075897 C494.966131 375.386963 493.358771 373.574433 493.387884 369.365052 C493.463995 358.353150 494.676092 357.182434 505.830267 359.147003 C507.155524 359.380463 509.222723 360.888886 509.269110 361.884461 C509.418341 365.086853 508.782049 368.325836 508.448736 372.050720 z"/><path class="selected"  fill="#000000" opacity="1.000000" stroke="none" 
 	d="
M501.448736 82.050720 C509.326910 82.050720 509.443182 82.211029 508.473334 89.517105 C508.300482 90.819199 508.863104 92.363282 508.345343 93.439225 C507.675970 94.830399 506.471319 96.334397 505.117804 96.934922 C503.310553 97.736756 501.149298 97.815415 499.121527 98.028794 C495.687384 98.390198 493.345282 97.298538 493.443548 93.317246 C493.476263 91.993027 493.443609 90.667267 493.449591 89.342270 C493.484686 81.558838 492.393622 81.977173 501.448736 82.050720 z"/><path class="selected"  fill="#000000" opacity="1.000000" stroke="none" 
 	d="
M546.448736 185.050720 C553.560370 188.384064 560.218085 191.629929 566.768622 195.079193 C571.763800 197.709412 574.750372 201.352631 574.571539 207.680939 C574.176642 221.656372 574.393011 235.651001 574.476568 249.637116 C574.509344 255.125702 572.503546 258.756958 567.205450 261.161347 C558.081671 265.301880 549.223700 270.042145 540.348944 274.710877 C536.240118 276.872376 532.402472 277.291748 528.133185 275.094147 C518.812201 270.296143 509.364020 265.745636 499.978155 261.073212 C495.783270 258.984955 493.341803 255.934754 493.392767 250.879547 C493.547369 235.562470 493.535528 220.241974 493.392401 204.924652 C493.352789 200.684845 495.130621 198.023896 498.767279 196.214722 C508.157660 191.543152 517.586615 186.941681 526.864874 182.055313 C531.787726 179.462662 536.401373 179.415131 541.125067 182.224320 C542.726752 183.176865 544.340521 184.109162 546.448736 185.050720 M552.948736 219.050720 C550.502753 220.384033 547.961554 221.572907 545.644110 223.101197 C544.082159 224.131287 541.684759 225.597046 541.634039 226.942353 C541.282416 236.256958 541.402716 245.592102 541.592169 254.916138 C541.601080 255.356171 544.068854 256.432282 544.765875 256.055329 C548.058722 254.274506 551.067328 251.977112 554.306769 250.085724 C557.035284 248.492615 558.669867 246.684357 558.530462 243.164887 C558.253851 236.179932 558.450323 229.176270 558.447516 222.180359 C558.446905 220.628022 558.430487 219.075653 558.421332 217.523285 C556.930487 218.032440 555.439581 218.541565 552.948736 219.050720 M525.448736 245.550720 C525.448736 242.391083 524.921881 239.122772 525.546881 236.092011 C527.479864 226.718537 522.823004 221.867218 514.713019 219.057160 C514.564581 219.005707 514.340521 219.116638 514.222540 219.041107 C510.934454 216.936615 509.435797 217.966065 509.445929 221.729859 C509.458014 226.219879 509.893866 230.764191 509.354559 235.188507 C508.284491 243.967163 509.700140 250.866852 519.750677 253.112793 C521.706610 253.549866 523.483587 254.787842 525.343085 255.656403 C525.378302 253.618958 525.418951 251.581604 525.446417 249.544068 C525.459845 248.546448 525.448736 247.548523 525.448736 245.550720 M520.448736 204.550720 C527.164862 208.044831 533.536383 213.757935 541.666815 207.440277 C542.801520 206.558594 544.589483 206.546356 546.040594 206.034027 C547.194098 205.626801 548.294989 205.070435 549.419195 204.580231 C548.460882 203.737061 547.626837 202.638794 546.520392 202.099701 C543.491949 200.624207 540.401434 199.236084 537.230047 198.110108 C535.520819 197.503266 533.275885 196.757080 531.829046 197.375458 C527.877691 199.064301 524.221686 201.444428 520.448736 204.550720 z"/></svg>