<svg xmlns="http://www.w3.org/2000/svg" width="64" height="64" viewBox="0 0 937.961 636.392"><g stroke-linecap="round" fill="none" stroke="currentColor" class="nc-icon-wrapper" stroke-linejoin="round"><path class="selected" fill="currentColor" opacity="1" stroke="none" d="M655.449 281.05c0 53.5-.11 106.5.114 159.5.035 8.234-7.45 15.737-15.594 15.618-22.995-.335-45.998-.114-68.998-.122-2.376 0-4.752-.066-7.128-.1.535-2.337 1.042-4.68 1.611-7.008 1.718-7.022 1.575-14.033-1.103-20.72-1.449-3.616-.255-4.225 2.933-4.19 6.5.074 13 .023 19.5.023 16 0 32.002-.144 47.998.097 4.21.063 5.666-2.027 5.594-5.395-.2-9.351 3.173-11.78-10.691-11.757-70.5.119-141 .055-211.499.054-6.347 0-6.737-.389-6.737-6.726 0-31.333.05-62.667-.07-94-.013-3.574 1.299-5.58 4.308-7.34 7.697-4.502 12.263-10.994 11.806-20.363-.074-1.509.436-3.046.676-4.57 1.093 1.395 2.596 2.629 3.216 4.21 6.038 15.384 16.558 27.475 29.086 37.614 7.833 6.34 16.89 11.254 25.703 16.271 8.818 5.02 18.738 6.674 28.708 7.939 6.442.818 12.863 2.93 19.258 2.795 24.591-.52 47.092-7.941 67.212-22.252.536-.381.886-1.036 1.436-1.381 1.112-.698 2.303-1.271 3.461-1.896.329 1.472 1.144 3.033.892 4.397-.703 3.8 1.305 5.984 5.057 5.049.903-.225 1.783-.663 2.692-.72 8.558-.539 8.351-.527 8.622-9.343.23-7.487-1.79-15.292 2.956-22.26 2.896-4.251 5.589-8.655 8.141-13.122 7.992-13.99 11.72-29.102 12.968-45.168 2.128-27.372-5.415-51.743-20.553-74.25-1.99-2.96-3.078-6.904-3.426-10.504-.558-5.78-.264-11.656-.102-17.484.085-3.027-1.037-4.147-4.035-3.938-2.82.198-5.666-.03-8.497.06-3.823.121-5.112 2.091-4.26 5.815.266 1.164-.206 2.497-.34 3.753-1.159-.548-2.507-.875-3.447-1.679-14.172-12.11-30.799-18.77-48.952-21.838-6.485-1.095-13.172-2.335-19.644-1.855-10.41.772-20.776 2.616-31.058 4.548-20.795 3.907-37.585 15.343-51.91 30.137-10.163 10.495-19.26 22.15-22.937 36.92-.114.455-.913 1.185-1.052 1.115-.7-.354-1.671-.82-1.853-1.449-1.625-5.6-5.459-8.897-10.422-11.692-1.893-1.066-3.476-4.47-3.49-6.82-.213-37.665-.125-75.332-.185-112.998-.007-4.38 2.407-5.015 6.025-5.012 67.166.051 134.333.038 201.499.038 5.5 0 11.01.19 16.493-.127 1.471-.085 3.868-1.516 4.092-2.67.74-3.801.895-7.766.762-11.651-.03-.887-2.012-1.958-3.287-2.471-1.004-.404-2.3-.081-3.467-.081-69.5 0-139 .008-208.5-.007-15.479-.003-13.575 1.757-13.504-13.874.012-2.77.752-5.636 1.66-8.284 2.727-7.95 9.475-9.761 16.708-9.774C491.228.005 552.56.051 613.894.051c8 0 16.003-.138 23.999.04 7.488.166 13.812 2.569 16.515 10.398.61 1.766.998 3.71.999 5.571.048 88.164.042 176.327.042 264.99m-64 106.5c3.037 1.5 6.01 4.11 9.125 4.294 9.613.566 19.29.462 28.925.123 7.232-.255 9.319-1.954 9.835-8.581.776-9.973 1.09-20.008 1.017-30.013-.059-8.041-4.009-11.313-12.26-11.32-8.815-.009-17.632.128-26.444-.043-7.21-.14-11.346 3.757-11.23 11.026.137 8.647-.042 17.298.078 25.945.035 2.527.62 5.047.954 8.57m41.5-273.5c3.286-1.35 6.491-2.52 6.557-7.118.152-10.513 1.21-21.05.73-31.524-.315-6.866-2.777-10.215-8.636-10.309-10.812-.173-21.63-.106-32.446-.022-4.511.034-8.632 4.031-8.673 8.467-.1 10.648-.129 21.299.006 31.947.073 5.763 3.185 8.55 9.015 8.556 10.815.01 21.631.003 33.447.003m-107.5 237.5c.776-4.43-1.54-7.081-5.535-7.4-11.843-.946-23.72-1.835-35.588-1.881-4.11-.016-7.747 3.202-7.824 8.098-.17 10.808-.291 21.629.073 32.427.132 3.917 1.285 8.106 6.732 8.261 11.005.315 22.027 1.175 33.01.808 6.895-.231 9.132-3.792 9.132-10.873v-29.44m-7.5-238.5c5.832-1.195 7.498-3.107 7.5-8.62.001-10.322.026-20.643-.011-30.964-.02-5.327-2.969-8.375-8.193-8.4-10.654-.053-21.308-.07-31.962.008-4.793.035-8.777 4.042-8.811 8.846-.075 10.487-.228 20.981.055 31.461.166 6.152 3.37 8.972 8.876 8.714 10.508-.49 21.03-.712 32.546-1.045m-82.5 241.5c0 8.136.058 16.272-.028 24.408-.036 3.424 1.314 5.325 4.867 5.066 2.86-.208 5.784-.346 8.52-1.097 1.395-.382 3.442-2.009 3.48-3.132.294-8.458.385-16.942-.046-25.388-.078-1.523-2.627-3.547-4.443-4.189-2.067-.73-4.712-.622-6.878-.035-1.982.538-3.66 2.2-5.472 4.367m17-278c-1.124-1.167-2.112-3.117-3.4-3.341-2.909-.506-5.967-.123-8.963-.169-3.311-.05-4.692 1.613-4.654 4.829.061 5.16.017 10.322.017 15.483 0 13.2-.003 13.114 13.156 12.762 3.045-.082 3.959-1.13 3.9-4.091-.162-8.155-.056-16.315-.056-25.473m114 280c-.817-2.15-1.5-6.069-2.474-6.142-4.068-.308-8.272.303-12.312 1.135-.965.199-2.083 2.53-2.116 3.905-.199 8.123-.146 16.255-.075 24.383.03 3.342 2.122 4.514 5.183 4.2 2.36-.241 4.722-1.017 7.048-.896 3.58.186 4.986-.87 4.828-4.687-.289-6.955-.082-13.931-.082-21.898m-17-268v4.994c0 12.815 0 12.815 12.847 12.507.333-.008.8.142.977-.025 1.095-1.026 3.005-2.098 3.036-3.2.25-8.816.25-17.647.004-26.464-.031-1.13-1.929-3.186-2.925-3.164-12.597.28-14.358-3.503-13.942 12.354.018.665.003 1.332.003 2.998z"></path><path class="selected" fill="currentColor" opacity="1" stroke="none" d="M534.449 326.05c-21.329-.243-40.709-6.08-57.375-18.22-19.82-14.44-33.475-33.869-38.53-58.278-4.927-23.785-2.127-46.651 9.866-68.186 13.55-24.331 33.842-39.965 60.514-47.236 14.28-3.892 28.697-4.037 43.433-1.272 16.266 3.053 30.729 9.664 43.169 20.04 14.514 12.106 25.207 27.227 30.974 45.566 3.23 10.269 5.272 20.761 4.83 31.432-.934 22.567-7.846 42.958-22.653 60.596-12.488 14.876-27.669 25.476-46.185 30.788-8.904 2.555-18.345 3.24-28.043 4.77m-48-130.5c-5.85 9.282-9.524 19.42-9.881 30.337-.44 13.434 3.447 25.618 11.662 36.617 9.446 12.647 21.833 20.41 37.136 22.318 13.093 1.633 25.897-.145 37.728-7.61 11.055-6.976 18.81-16.131 23.74-28.024 3.425-8.258 4.268-16.77 3.697-25.658-.787-12.255-5.226-22.9-13.197-32.014-9.75-11.15-21.725-17.797-36.842-19.728-11.046-1.412-21.08.417-30.842 4.694-9.194 4.027-16.641 10.535-23.201 19.069z"></path><path class="selected" fill="currentColor" opacity="1" stroke="none" d="M411.449 248.05c0 8.992.158 17.487-.042 25.973-.225 9.535-3.137 11.164-11.048 11.12-36.794-.208-73.59-.092-110.386-.093-5.904 0-8.523-2.642-8.524-8.596-.001-26.639.135-53.279-.114-79.916-.05-5.332 2.6-8.636 8.663-8.6 37.293.224 74.589.112 111.883.113 6.842 0 9.542 2.645 9.557 9.551.034 16.65.01 33.3.01 50.449m-55.5 10c7.815-5.87 8.915-16.905 3.341-22.878-4.84-5.185-5.133-10.816-4.865-17.052.142-3.322.352-6.702-.112-9.965-.236-1.658-1.698-4.214-2.957-4.444-3.232-.591-6.721-.481-9.992.057-2.76.454-4.132 2.505-3.983 5.678.25 5.314.455 10.688-.083 15.959-.3 2.94-1.407 6.484-3.428 8.427-4.864 4.68-5.487 14.122-1.576 19.548 5.665 7.859 13.77 10.164 23.656 4.67z"></path><path class="selected" fill="currentColor" opacity="1" stroke="none" d="M260.699 551.8c2.135 2.136 3.83 4.275 5.944 5.857 5.185 3.883 3.788 9.385 3.617 14.45-.035 1.023-2.464 2.75-3.843 2.807-5.764.233-11.639 1.051-16.247-4.335-1.568-1.834-5.033-2.762-7.666-2.833-8.274-.223-16.571.02-24.84.465-1.13.06-3.056 2.272-3.076 3.513-.22 13.828-.196 27.661-.102 41.493.026 3.71.997 4.973 5.734 4.154 7.12-1.23 14.627-.634 21.935-.21 4.93.285 6.689-.987 6.42-6.207-.458-8.886-.126-8.903-9.094-8.903-11.032 0-11.05 0-11.027-10.844.02-9.277-1.072-8.122 8.216-8.15 9.665-.029 19.333.124 28.995-.074 3.551-.073 4.965.801 4.871 4.665-.254 10.493.09 21.001-.22 31.49-.072 2.46-1.383 5.157-2.834 7.255-5.406 7.818-12.725 10.658-22.461 9.873-11.425-.92-22.982-.336-34.478-.148-3.861.063-6.535-1.4-9.514-3.767-6.965-5.534-9.209-12.172-8.784-21.035.734-15.297.101-30.656.32-45.984.031-2.149 1.294-4.511 2.573-6.37 5.77-8.386 13.728-10.911 23.866-10.117 11.428.895 22.984.07 34.477.32 2.34.05 4.646 1.552 7.218 2.636z"></path><path class="selected" fill="currentColor" opacity="1" stroke="none" d="M462.449 581.05v42.967c0 2.721-.187 5.459.045 8.16.312 3.63-1.67 3.904-4.548 3.921-15.24.09-15.262.159-24.228-13.29-7.216-10.824-14.351-21.703-21.585-32.515-.558-.833-1.614-1.333-2.438-1.988-.416 1.16-1.185 2.318-1.192 3.481-.086 13.156-.154 26.313.012 39.467.044 3.519-.743 5.148-4.647 4.874-4.64-.325-9.34.16-13.97-.234-1.234-.104-3.296-2.127-3.304-3.282-.188-26.644-.115-53.29-.189-79.935-.008-2.844 1.08-3.928 3.792-3.628.165.019.333.006.5.002 15.867-.335 15.989-.417 26.678 15.498 7.233 10.77 14.058 21.813 21.088 32.718.413.64 1.034 1.145 1.558 1.713.476-.802 1.387-1.625 1.35-2.402-.138-2.87-.848-5.72-.877-8.583-.11-11.323 0-22.649-.073-33.972-.022-3.525 1.494-5.077 5.015-4.996 4.494.103 8.993.058 13.489.014 3.398-.033 4.655 1.768 4.53 4.945-.35 8.855-.673 17.71-1.006 27.066z"></path><path class="selected" fill="currentColor" opacity="1" stroke="none" d="M873.449 602.05c-4.84-4.006-9.195-7.998-13.497-12.044-.41-.385-.661-1.1-.706-1.684-.706-9.329-3.681-19.405 1.56-27.621 3.89-6.099 8.675-12.792 18.808-11.93 13.402 1.139 26.977.167 40.472.395 2.159.036 4.617 1.184 6.362 2.552 2.865 2.245 5.087 5.299 7.893 7.634 3.937 3.274 3.363 7.631 2.915 11.724-.16 1.45-2.465 3.692-3.916 3.794-6.084.428-12.499 1.245-17.058-4.48-2.924-3.672-7.36-2.82-11.129-3.19-5.777-.567-11.68-.48-17.47.019-2.22.192-5.633 1.892-6.118 3.587-.947 3.308-.487 7.137.043 10.652.113.747 3.011 1.504 4.635 1.523 10.998.133 22.006-.15 32.993.225 2.734.093 5.673 1.702 8.052 3.305 8.603 5.796 10.179 14.053 10.643 24.216.523 11.467-5.714 17.499-12.717 23.903-1.12 1.024-3.22 1.351-4.87 1.362-15.166.1-30.333.128-45.497-.038-1.705-.018-3.665-1.039-5.034-2.168-2.56-2.111-4.537-4.958-7.18-6.931-4.74-3.537-4.426-8.432-4.074-13.306.088-1.21 1.292-2.832 2.417-3.388 3.974-1.965 14.77.475 18.138 4.167 1.98 2.171 4.042 2.858 6.91 2.79 8.161-.192 16.332-.164 24.496-.017 3.01.055 4.081-.999 4.005-4.003-.056-2.185.748-4.378.887-6.586.217-3.434-1.817-4.5-4.964-4.484-12.166.056-24.333.023-37 .023z"></path><path class="selected" fill="currentColor" opacity="1" stroke="none" d="M57.449 549.05c9.213 0 19 9.68 19 18.3 0 16.986-.096 33.974.075 50.959.037 3.73-1.508 6.21-3.682 9.036-5.561 7.225-12.487 9.306-21.455 8.898-15.29-.696-30.634-.186-45.955-.196-5.11-.003-6.144-1.446-5.025-6.563.278-1.272.042-2.656.042-3.988v-65.948c0-1.332.239-2.718-.042-3.987-1.121-5.06-.063-6.505 5.082-6.507 17.154-.008 34.307-.003 51.96-.003m-17.5 68c3.66 0 7.356.288 10.962-.154 1.29-.158 3.367-2.063 3.386-3.199.232-14.138.21-28.283.037-42.423-.013-1.085-1.587-3.017-2.543-3.087-7.83-.577-15.69-1.067-23.533-.96-2.083.027-5.825-.224-5.819 3.965.024 14.642-.047 29.285.136 43.924.012.99 1.834 2.793 2.811 2.79 4.522-.009 9.042-.523 14.563-.856z"></path><path class="selected" fill="currentColor" opacity="1" stroke="none" d="M700.449 611.05c-2 0-3.5-.022-4.998.005-3.89.07-6.413 1.23-6.08 5.958.35 4.973-.063 9.995.131 14.985.114 2.948-.783 4.213-3.88 4.1-4.824-.177-9.664-.157-14.49-.005-2.79.088-3.735-.962-3.725-3.736.075-22.488-.023-44.978.154-67.465.016-1.982 1.293-4.182 2.528-5.887 5.613-7.756 12.861-11.083 22.845-10.171 10.573.966 21.306.372 31.963.14 4.232-.093 7.119 1.544 10.368 4.137 6.722 5.364 8.691 11.688 8.395 20.202-.671 19.3-.286 38.64-.144 57.963.027 3.555-.81 5.142-4.673 4.846-4.14-.317-8.326-.145-12.488-.049-3.57.083-5.005-1.609-4.931-5.077.1-4.663-.246-9.349.1-13.987.354-4.732-2.193-5.916-6.082-5.949-4.831-.04-9.662-.01-14.993-.01m4.5-44c-3.16 0-6.335-.208-9.472.055-3.727.312-6.66 1.315-6.143 6.371.521 5.1.283 10.304.055 15.447-.148 3.32 1.123 4.263 4.297 4.186 7.477-.182 14.963-.16 22.442-.018 4.078.077 5.513-1.758 5.364-5.663-.182-4.814-.183-9.646.005-14.46.13-3.33-.399-5.248-4.497-5.029-3.657.196-7.365-.555-12.051-.888z"></path><path class="selected" fill="currentColor" opacity="1" stroke="none" d="M148.449 549.05c6.832 0 13.173-.175 19.488.153 1.223.064 3.165 1.977 3.351 3.245.48 3.263.18 6.643.156 9.975-.032 4.652-1.567 5.732-6.445 4.71-.954-.2-1.978-.08-2.97-.08-11.665-.004-23.33-.022-34.994.006-5.653.014-7.58 1.95-7.586 7.454-.01 8.538-.011 8.538 8.337 8.538 10.832 0 21.665.104 32.494-.063 3.274-.05 4.452 1.044 4.215 4.275-.218 2.984-.19 6.004-.012 8.993.248 4.166-1.404 5.921-5.705 5.853-10.996-.175-21.999.102-32.992-.134-4.633-.1-6.538 1.4-6.413 6.205.232 8.866.043 8.87 9.078 8.87 12.498 0 24.997.09 37.493-.05 4.015-.046 5.55 1.48 5.562 5.509.04 13.542.134 13.542-13.39 13.542-14.164 0-28.33-.128-42.49.083-3.897.058-6.84-1.217-9.443-3.845-1.994-2.013-4.319-3.79-5.912-6.078-1.37-1.969-2.682-4.506-2.703-6.804-.2-21.994-.052-43.991-.187-65.986-.022-3.531 1.143-4.48 4.576-4.443 15.33.167 30.661.073 46.492.073z"></path><path class="selected" fill="currentColor" opacity="1" stroke="none" d="M291.449 569.05c0-5.833-.207-11.18.154-16.489.084-1.237 2.09-3.351 3.226-3.361 22.331-.2 44.665-.114 66.998-.194 2.853-.01 3.585 1.105 3.679 3.8.497 14.247.561 14.245-13.693 14.245-9.833 0-19.666-.02-29.5.006-7.83.022-12.492 7.73-8.606 14.552.558.98 2.824 1.368 4.306 1.381 11.832.109 23.67.22 35.497-.029 3.955-.082 5.416 1.078 4.996 5.038-.297 2.802-.37 5.704.012 8.484.672 4.883-1.488 5.782-5.893 5.665-11.159-.294-22.332.017-33.496-.155-4.292-.067-6.036 1.676-5.697 5.844.108 1.325.063 2.667.008 3.998-.17 4.132.42 6.204 5.878 5.464 7.364-.999 14.966-.248 22.466-.248 6.166 0 12.335.092 18.499-.034 3.806-.078 5.175 1.618 5.214 5.332.147 13.703.22 13.702-13.226 13.702h-43c-7.772-.001-17.822-10.153-17.822-18v-49z"></path><path class="selected" fill="currentColor" opacity="1" stroke="none" d="M483.449 576.05c0-7.662.067-14.825-.029-21.987-.047-3.51 1.442-5.048 4.976-5.038 18.656.055 37.313-.047 55.967.131 2.007.02 4.283 1.125 5.95 2.372 7.55 5.65 11.69 12.713 10.295 22.764-.861 6.21-.344 12.645-.09 18.964.151 3.727-1.482 6.21-3.636 9.058-5.532 7.314-12.385 9.847-21.46 8.9-7.58-.793-15.308-.172-22.97-.16-5.258.008-6.61 1.907-6.086 7.131.413 4.123.38 8.349-.008 12.476-.335 3.573-1.855 6.188-6.503 5.496-3.585-.534-7.32-.243-10.976-.07-4.053.192-5.507-1.577-5.481-5.567.117-17.99.05-35.98.05-54.47m23-.5c0 4.49.147 8.985-.051 13.465-.131 2.952.807 4.142 3.88 4.085 7.812-.147 15.628-.077 23.442-.036 3.24.017 4.769-1.48 4.742-4.728-.045-5.486.181-10.984-.15-16.45-.082-1.333-1.795-3.569-2.915-3.671-7.147-.656-14.336-.99-21.517-1.118-6.708-.118-7.43.78-7.43 8.454z"></path><path class="selected" fill="currentColor" opacity="1" stroke="none" d="M297.449 142.05c0-8.83-.028-17.16.006-25.489.047-11.29 3.162-21.627 11.012-29.882 7.293-7.67 16.348-12.348 27.21-12.601 6.328-.148 12.666.128 18.991-.057 16.742-.49 33.767 12.21 37.956 27.745.816 3.026 1.717 6.156 1.744 9.246.163 18.324-.02 36.651.163 54.975.037 3.792-.793 5.248-4.897 5.16-10.181-.216-10.185-.017-10.185-10.28 0-14.827.08-29.654-.026-44.48-.081-11.468-4.585-20.434-15.485-25.25-2.384-1.052-5.14-1.713-7.737-1.754-12.906-.204-26.548-3.045-36.775 8.287-3.625 4.017-5.994 8.815-5.986 14.492.024 17.66-.091 35.32.077 52.978.044 4.55-1.696 6.35-6.12 5.936-1.652-.155-3.333-.084-4.996-.013-3.534.151-5.022-1.509-4.981-5.021.092-7.83.029-15.66.029-23.991z"></path><path class="selected" fill="currentColor" opacity="1" stroke="none" d="M803.449 636.05c-13 0-12.863-.001-13.058-12.347-.097-6.152.656-12.898-1.579-18.299-3.234-7.815-8.83-14.653-13.417-21.907-4.588-7.255-9.477-14.344-13.6-21.854-1.426-2.6-1.252-6.249-1.181-9.404.024-1.085 1.894-2.952 3.033-3.043 4.466-.356 9.204-.984 13.393.146 2.854.77 5.585 3.909 7.294 6.658 5.314 8.553 10.09 17.44 15.146 26.156.623 1.073 1.674 1.897 2.527 2.836.48-.966.913-1.96 1.45-2.894 6.094-10.627 12.189-21.255 18.353-31.842.34-.585 1.29-1.142 1.966-1.153 5.492-.093 10.994-.2 16.47.112.798.045 2.01 2.244 2.114 3.521.594 7.302-4.012 12.634-7.473 18.328-6.72 11.052-13.721 21.934-20.347 33.041-1.299 2.177-1.881 5.032-2 7.611-.283 6.146-.433 12.339.016 18.465.364 4.957-1.46 6.605-6.113 5.887-.813-.125-1.662-.017-2.994-.017z"></path><path class="selected" fill="currentColor" opacity="1" stroke="none" d="M497.449 424.05c7.316 0 7.259-.02 5.015 6.445-2.511 7.234-2.29 14.34.928 21.404 1.34 2.938 1.641 4.648-3.31 4.374-12.272-.678-24.607-.222-36.916-.222-11.811 0-23.638-.384-35.426.13-8.32.363-15.599-6.605-16.252-15.862-.245-3.476.135-6.995-.082-10.474-.289-4.613 1.883-5.878 6.196-5.858 26.448.127 52.898.064 79.847.064z"></path><path class="selected" fill="currentColor" opacity="1" stroke="none" d="M581.449 609.05c0-18.637.15-36.777-.109-54.912-.062-4.355 1.394-5.467 5.392-5.152 3.803.3 7.67.315 11.47-.003 4.07-.342 5.405.91 5.35 5.192-.24 18.967-.103 37.939-.103 56.909 0 6.562.236 6.275 6.567 6.077 12.136-.38 24.294-.235 36.435.064 1.363.033 2.708 2.428 3.962 3.818.248.276.03.967.037 1.466.188 13.542.188 13.542-13.297 13.542-12.813 0-25.631.19-38.435-.152-2.729-.072-5.65-1.696-8.063-3.254-8.452-5.454-10.572-13.625-9.206-23.594z"></path><path class="selected" fill="currentColor" opacity="1" stroke="none" d="M546.699 430.8c6.344 11.37.924 22.176-7.88 24.498-6.987 1.843-15.166-.113-18.3-5.802-3.811-6.915-3.965-13.916 1.875-20.132 6.882-7.325 16.978-6.58 24.305 1.437z"></path><path class="selected" fill="currentColor" opacity="1" stroke="none" d="M609.699 374.8c-1.963-2.293-3.205-12.844-1.828-14.605.435-.557 1.272-.959 1.99-1.098.955-.186 1.975-.02 2.966-.05 12.21-.38 10.513.438 10.638 11.178.041 3.537-1.676 4.96-5.087 4.845-2.806-.095-5.62-.02-8.68-.27z"></path><path class="selected" fill="currentColor" opacity="1" stroke="none" d="M619.449 97.05c-1.855.334-3.21.67-4.565 1-4.15 1.01-7.484-1.372-7.416-5.474.206-12.552-2.144-10.228 10.738-10.552 3.724-.094 5.455 1.442 5.263 5.208-.11 2.15.405 4.434-.169 6.425-.387 1.342-2.185 2.277-3.851 3.394z"></path><path class="selected" fill="currentColor" opacity="1" stroke="none" d="M508.449 372.05c-1.114 1.334-2.129 2.628-3.364 2.894-1.898.407-3.956-.015-5.93.132-4.189.311-5.796-1.502-5.767-5.71.076-11.013 1.288-12.184 12.442-10.219 1.326.233 3.393 1.742 3.44 2.737.148 3.203-.488 6.442-.821 10.167z"></path><path class="selected" fill="currentColor" opacity="1" stroke="none" d="M501.449 82.05c7.878 0 7.994.161 7.024 7.467-.173 1.302.39 2.846-.128 3.922-.669 1.391-1.874 2.895-3.227 3.496-1.807.802-3.969.88-5.996 1.094-3.435.361-5.777-.73-5.678-4.712.032-1.324 0-2.65.006-3.975.035-7.783-1.056-7.365 7.999-7.291z"></path><path class="selected" fill="currentColor" opacity="1" stroke="none" d="M546.449 185.05c7.111 3.334 13.77 6.58 20.32 10.03 4.995 2.63 7.981 6.273 7.803 12.6-.395 13.976-.179 27.971-.095 41.957.032 5.489-1.973 9.12-7.272 11.524-9.123 4.14-17.981 8.881-26.856 13.55-4.109 2.161-7.947 2.58-12.216.383-9.32-4.798-18.769-9.348-28.155-14.02-4.195-2.089-6.636-5.14-6.585-10.194.154-15.318.143-30.638 0-45.955-.04-4.24 1.738-6.901 5.374-8.71 9.39-4.672 18.82-9.273 28.098-14.16 4.923-2.592 9.536-2.64 14.26.17 1.602.952 3.216 1.884 5.324 2.826m6.5 34c-2.446 1.333-4.987 2.522-7.305 4.05-1.562 1.03-3.96 2.496-4.01 3.841-.352 9.315-.231 18.65-.042 27.974.01.44 2.477 1.516 3.174 1.14 3.293-1.781 6.301-4.079 9.54-5.97 2.73-1.593 4.364-3.402 4.224-6.921-.276-6.985-.08-13.989-.082-20.985-.001-1.552-.018-3.104-.027-4.657-1.49.51-2.981 1.019-5.472 1.528m-27.5 26.5c0-3.16-.527-6.428.098-9.459 1.933-9.373-2.724-14.225-10.834-17.035-.148-.051-.372.06-.49-.016-3.289-2.104-4.787-1.075-4.777 2.689.012 4.49.448 9.034-.091 13.459-1.07 8.778.345 15.678 10.396 17.924 1.956.437 3.733 1.675 5.592 2.543.035-2.037.076-4.074.103-6.112.014-.998.003-1.995.003-3.993m-5-41c6.716 3.494 13.087 9.207 21.218 2.89 1.135-.882 2.922-.895 4.374-1.407 1.153-.407 2.254-.964 3.378-1.454-.958-.843-1.792-1.941-2.899-2.48-3.028-1.476-6.119-2.864-9.29-3.99-1.71-.607-3.954-1.353-5.401-.735-3.951 1.69-7.607 4.07-11.38 7.176z"></path></g></svg>