<svg width="52" height="64" xmlns="http://www.w3.org/2000/svg" viewBox="0 0 769.254 636.392"><g class="nc-icon-wrapper" id="1687964903010-4067760_g44" fill="none" stroke="currentColor" strokeLinejoin="round" strokeLinecap="round"><path class="selected" fill="currentColor" opacity="1" stroke="none" d="M655.449 357.767c0 53.5-.11 106.5.114 159.5.035 8.234-7.45 15.737-15.594 15.618-22.995-.335-45.998-.114-68.998-.122-2.376 0-4.752-.066-7.128-.1.535-2.337 1.042-4.68 1.611-7.008 1.718-7.022 1.575-14.033-1.103-20.72-1.449-3.616-.255-4.225 2.933-4.19 6.5.074 13 .023 19.5.023 16 0 32.002-.144 47.998.097 4.21.063 5.666-2.027 5.594-5.395-.2-9.35 3.173-11.78-10.691-11.757-70.5.12-141 .055-211.499.054-6.347 0-6.737-.389-6.737-6.726 0-31.333.05-62.667-.07-94-.013-3.574 1.299-5.58 4.308-7.34 7.697-4.502 12.263-10.994 11.806-20.363-.074-1.509.436-3.046.676-4.57 1.093 1.395 2.596 2.63 3.216 4.21 6.038 15.384 16.558 27.475 29.086 37.614 7.833 6.34 16.89 11.254 25.703 16.271 8.818 5.02 18.738 6.674 28.708 7.94 6.442.817 12.863 2.93 19.258 2.794 24.591-.52 47.092-7.94 67.212-22.252.536-.38.886-1.036 1.436-1.38 1.112-.699 2.303-1.272 3.461-1.897.329 1.472 1.144 3.033.892 4.397-.703 3.8 1.305 5.984 5.057 5.05.903-.226 1.783-.664 2.692-.72 8.558-.54 8.351-.528 8.622-9.344.23-7.487-1.79-15.292 2.956-22.26 2.896-4.25 5.589-8.655 8.141-13.122 7.992-13.99 11.72-29.102 12.968-45.168 2.128-27.372-5.415-51.743-20.553-74.25-1.99-2.96-3.078-6.904-3.426-10.504-.558-5.78-.264-11.656-.102-17.484.085-3.027-1.037-4.147-4.035-3.938-2.82.198-5.666-.03-8.497.06-3.823.121-5.112 2.091-4.26 5.815.266 1.164-.206 2.497-.34 3.753-1.159-.548-2.507-.875-3.447-1.679-14.172-12.11-30.799-18.77-48.952-21.838-6.485-1.095-13.172-2.335-19.644-1.855-10.41.772-20.776 2.616-31.058 4.548-20.795 3.907-37.585 15.343-51.91 30.137-10.163 10.495-19.26 22.15-22.937 36.92-.114.455-.913 1.185-1.052 1.115-.7-.354-1.671-.82-1.853-1.449-1.625-5.6-5.459-8.897-10.422-11.692-1.893-1.066-3.476-4.47-3.49-6.82-.213-37.665-.125-75.332-.185-112.998-.007-4.38 2.407-5.015 6.025-5.012 67.166.051 134.333.038 201.499.038 5.5 0 11.01.19 16.493-.127 1.471-.085 3.868-1.516 4.092-2.67.74-3.8.895-7.766.762-11.65-.03-.888-2.012-1.959-3.287-2.472-1.004-.404-2.3-.08-3.467-.08-69.5 0-139 .007-208.5-.008-15.479-.003-13.575 1.757-13.504-13.874.012-2.77.752-5.636 1.66-8.284 2.727-7.95 9.475-9.76 16.708-9.774 61.333-.107 122.665-.06 183.999-.06 8 0 16.003-.139 23.999.04 7.488.165 13.812 2.568 16.515 10.397.61 1.766.998 3.71.999 5.571.048 88.164.042 176.327.042 264.99m-64 106.5c3.037 1.5 6.01 4.11 9.125 4.294 9.613.566 19.29.462 28.925.123 7.232-.255 9.319-1.954 9.835-8.58.776-9.974 1.09-20.009 1.017-30.014-.059-8.04-4.009-11.313-12.26-11.32-8.815-.009-17.632.128-26.444-.043-7.21-.14-11.346 3.757-11.23 11.026.137 8.647-.042 17.298.078 25.945.035 2.527.62 5.047.954 8.57m41.5-273.5c3.286-1.35 6.491-2.52 6.557-7.118.152-10.513 1.21-21.05.73-31.524-.315-6.866-2.777-10.215-8.636-10.309-10.812-.173-21.63-.106-32.446-.022-4.511.034-8.632 4.031-8.673 8.467-.1 10.648-.129 21.3.006 31.947.073 5.763 3.185 8.55 9.015 8.556 10.815.01 21.631.003 33.447.003m-107.5 237.5c.776-4.43-1.54-7.08-5.535-7.4-11.843-.946-23.72-1.835-35.588-1.88-4.11-.017-7.747 3.201-7.824 8.097-.17 10.808-.291 21.63.073 32.427.132 3.917 1.285 8.106 6.732 8.261 11.005.315 22.027 1.175 33.01.808 6.895-.23 9.132-3.792 9.132-10.873v-29.44m-7.5-238.5c5.832-1.195 7.498-3.107 7.5-8.62.001-10.322.026-20.643-.011-30.964-.02-5.327-2.969-8.375-8.193-8.4-10.654-.053-21.308-.07-31.962.008-4.793.035-8.777 4.042-8.811 8.846-.075 10.487-.228 20.981.055 31.461.166 6.152 3.37 8.972 8.876 8.714 10.508-.49 21.03-.712 32.546-1.045m-82.5 241.5c0 8.136.058 16.272-.028 24.408-.036 3.424 1.314 5.325 4.867 5.066 2.86-.208 5.784-.346 8.52-1.097 1.395-.382 3.442-2.009 3.48-3.132.294-8.458.385-16.942-.046-25.388-.078-1.523-2.627-3.547-4.443-4.189-2.067-.73-4.712-.622-6.878-.035-1.982.538-3.66 2.2-5.472 4.367m17-278c-1.124-1.167-2.112-3.117-3.4-3.34-2.909-.507-5.967-.124-8.963-.17-3.311-.05-4.692 1.613-4.654 4.83.061 5.16.017 10.321.017 15.482 0 13.2-.003 13.114 13.156 12.762 3.045-.082 3.959-1.13 3.9-4.09-.162-8.156-.056-16.316-.056-25.474m114 280c-.817-2.15-1.5-6.069-2.474-6.142-4.068-.308-8.272.303-12.312 1.135-.965.2-2.083 2.53-2.116 3.905-.199 8.123-.146 16.255-.075 24.383.03 3.342 2.122 4.514 5.183 4.2 2.36-.24 4.722-1.017 7.048-.896 3.58.186 4.986-.87 4.828-4.687-.289-6.955-.082-13.93-.082-21.898m-17-268v4.994c0 12.815 0 12.815 12.847 12.507.333-.008.8.142.977-.025 1.095-1.026 3.005-2.098 3.036-3.2.25-8.816.25-17.647.004-26.464-.031-1.13-1.929-3.186-2.925-3.164-12.597.28-14.358-3.503-13.942 12.354.018.665.003 1.332.003 2.998z" id="1687964903010-4067760_path2"></path><path class="selected" fill="currentColor" opacity="1" stroke="none" d="M534.449 402.767c-21.329-.243-40.709-6.08-57.375-18.22-19.82-14.44-33.475-33.869-38.53-58.278-4.927-23.785-2.127-46.65 9.866-68.186 13.55-24.33 33.842-39.965 60.514-47.236 14.28-3.892 28.697-4.037 43.433-1.272 16.266 3.053 30.729 9.664 43.169 20.04 14.514 12.106 25.207 27.227 30.974 45.566 3.23 10.27 5.272 20.761 4.83 31.432-.934 22.567-7.846 42.958-22.653 60.596-12.488 14.876-27.669 25.476-46.185 30.788-8.904 2.555-18.345 3.24-28.043 4.77m-48-130.5c-5.85 9.282-9.524 19.42-9.881 30.337-.44 13.434 3.447 25.618 11.662 36.617 9.446 12.647 21.833 20.41 37.136 22.318 13.093 1.633 25.897-.145 37.728-7.61 11.055-6.976 18.81-16.13 23.74-28.024 3.425-8.258 4.268-16.77 3.697-25.658-.787-12.255-5.226-22.9-13.197-32.014-9.75-11.15-21.725-17.797-36.842-19.728-11.046-1.412-21.08.417-30.842 4.694-9.194 4.027-16.641 10.535-23.201 19.07z" id="1687964903010-4067760_path4"></path><path class="selected" fill="currentColor" opacity="1" stroke="none" d="M411.449 324.767c0 8.992.158 17.487-.042 25.973-.225 9.535-3.137 11.164-11.048 11.12-36.794-.208-73.59-.092-110.386-.093-5.904 0-8.523-2.642-8.524-8.596-.001-26.639.135-53.279-.114-79.916-.05-5.332 2.6-8.636 8.663-8.6 37.293.224 74.589.112 111.883.113 6.842 0 9.542 2.645 9.557 9.551.034 16.65.01 33.3.01 50.45m-55.5 10c7.815-5.87 8.915-16.906 3.341-22.879-4.84-5.185-5.133-10.816-4.865-17.052.142-3.322.352-6.702-.112-9.965-.236-1.658-1.698-4.214-2.957-4.444-3.232-.59-6.721-.48-9.992.057-2.76.454-4.132 2.505-3.983 5.678.25 5.314.455 10.688-.083 15.96-.3 2.94-1.407 6.483-3.428 8.426-4.864 4.68-5.487 14.122-1.576 19.548 5.665 7.86 13.77 10.164 23.656 4.67z" id="1687964903010-4067760_path6"></path><path class="selected" fill="currentColor" opacity="1" stroke="none" d="M297.449 218.767c0-8.83-.028-17.16.006-25.489.047-11.29 3.162-21.627 11.012-29.882 7.293-7.67 16.348-12.348 27.21-12.6 6.328-.149 12.666.127 18.991-.058 16.742-.49 33.767 12.21 37.956 27.745.816 3.026 1.717 6.156 1.744 9.246.163 18.324-.02 36.651.163 54.975.037 3.792-.793 5.248-4.897 5.16-10.181-.216-10.185-.017-10.185-10.28 0-14.827.08-29.654-.026-44.48-.081-11.468-4.585-20.434-15.485-25.25-2.384-1.052-5.14-1.713-7.737-1.754-12.906-.204-26.548-3.045-36.775 8.287-3.625 4.017-5.994 8.815-5.986 14.492.024 17.66-.091 35.32.077 52.978.044 4.55-1.696 6.35-6.12 5.936-1.652-.155-3.333-.084-4.996-.013-3.534.151-5.022-1.509-4.981-5.02.092-7.83.029-15.66.029-23.992z" id="1687964903010-4067760_path24"></path><path class="selected" fill="currentColor" opacity="1" stroke="none" d="M497.449 500.767c7.316 0 7.259-.02 5.015 6.445-2.511 7.234-2.29 14.34.928 21.404 1.34 2.938 1.641 4.648-3.31 4.374-12.272-.678-24.607-.222-36.916-.222-11.811 0-23.638-.384-35.426.13-8.32.363-15.599-6.605-16.252-15.862-.245-3.476.135-6.995-.082-10.474-.289-4.613 1.883-5.878 6.196-5.858 26.448.127 52.898.064 79.847.064z" id="1687964903010-4067760_path28"></path><path class="selected" fill="currentColor" opacity="1" stroke="none" d="M546.699 507.517c6.344 11.37.924 22.176-7.88 24.498-6.987 1.843-15.166-.113-18.3-5.802-3.811-6.915-3.965-13.916 1.875-20.132 6.882-7.325 16.978-6.58 24.305 1.437z" id="1687964903010-4067760_path32"></path><path class="selected" fill="currentColor" opacity="1" stroke="none" d="M609.699 451.517c-1.963-2.293-3.205-12.844-1.828-14.605.435-.557 1.272-.959 1.99-1.098.955-.186 1.975-.02 2.966-.05 12.21-.38 10.513.438 10.638 11.178.041 3.537-1.676 4.96-5.087 4.845-2.806-.095-5.62-.02-8.68-.27z" id="1687964903010-4067760_path34"></path><path class="selected" fill="currentColor" opacity="1" stroke="none" d="M619.449 173.767c-1.855.334-3.21.67-4.565 1-4.15 1.01-7.484-1.372-7.416-5.474.206-12.552-2.144-10.228 10.738-10.552 3.724-.094 5.455 1.442 5.263 5.208-.11 2.15.405 4.434-.169 6.425-.387 1.342-2.185 2.277-3.851 3.394z" id="1687964903010-4067760_path36"></path><path class="selected" fill="currentColor" opacity="1" stroke="none" d="M508.449 448.767c-1.114 1.334-2.129 2.628-3.364 2.894-1.898.407-3.956-.015-5.93.132-4.189.311-5.796-1.502-5.767-5.71.076-11.013 1.288-12.184 12.442-10.219 1.326.233 3.393 1.742 3.44 2.737.148 3.203-.488 6.442-.821 10.167z" id="1687964903010-4067760_path38"></path><path class="selected" fill="currentColor" opacity="1" stroke="none" d="M501.449 158.767c7.878 0 7.994.161 7.024 7.467-.173 1.302.39 2.846-.128 3.922-.669 1.391-1.874 2.895-3.227 3.496-1.807.802-3.969.88-5.996 1.094-3.435.361-5.777-.73-5.678-4.712.032-1.324 0-2.65.006-3.975.035-7.783-1.056-7.365 7.999-7.29z" id="1687964903010-4067760_path40"></path><path class="selected" fill="currentColor" opacity="1" stroke="none" d="M546.449 261.767c7.111 3.334 13.77 6.58 20.32 10.03 4.995 2.63 7.981 6.273 7.803 12.6-.395 13.976-.179 27.971-.095 41.957.032 5.49-1.973 9.12-7.272 11.524-9.123 4.14-17.981 8.881-26.856 13.55-4.109 2.161-7.947 2.58-12.216.383-9.32-4.798-18.769-9.348-28.155-14.02-4.195-2.089-6.636-5.14-6.585-10.194.154-15.318.143-30.638 0-45.955-.04-4.24 1.738-6.9 5.374-8.71 9.39-4.672 18.82-9.273 28.098-14.16 4.923-2.592 9.536-2.64 14.26.17 1.602.952 3.216 1.884 5.324 2.826m6.5 34c-2.446 1.333-4.987 2.522-7.305 4.05-1.562 1.03-3.96 2.496-4.01 3.841-.352 9.315-.231 18.65-.042 27.974.01.44 2.477 1.516 3.174 1.14 3.293-1.78 6.301-4.079 9.54-5.97 2.73-1.593 4.364-3.402 4.224-6.92-.276-6.986-.08-13.99-.082-20.986-.001-1.552-.018-3.104-.027-4.657-1.49.51-2.981 1.02-5.472 1.528m-27.5 26.5c0-3.16-.527-6.428.098-9.459 1.933-9.373-2.724-14.225-10.834-17.035-.148-.05-.372.06-.49-.016-3.289-2.104-4.787-1.075-4.777 2.69.012 4.49.448 9.033-.091 13.458-1.07 8.778.345 15.678 10.396 17.924 1.956.437 3.733 1.675 5.592 2.543.035-2.037.076-4.074.103-6.112.014-.998.003-1.995.003-3.993m-5-41c6.716 3.494 13.087 9.207 21.218 2.89 1.135-.882 2.922-.895 4.374-1.407 1.153-.407 2.254-.964 3.378-1.454-.958-.843-1.792-1.94-2.899-2.48-3.028-1.476-6.119-2.864-9.29-3.99-1.71-.607-3.954-1.353-5.401-.735-3.951 1.69-7.607 4.07-11.38 7.176z" id="1687964903010-4067760_path42"></path></g></svg>